name ./resultDataOpenSim/trcMotMarkerGrf/sub10/grf-12-07.mot
datacolumns 19
datarows 30
range 0.50000000 0.61600000
endheader

                time	     ground_force_vx	     ground_force_vy	     ground_force_vz	     ground_force_px	     ground_force_py	     ground_force_pz	   l_ground_force_vx	   l_ground_force_vy	   l_ground_force_vz	   l_ground_force_px	   l_ground_force_py	   l_ground_force_pz	     ground_torque_x	     ground_torque_y	     ground_torque_z	   l_ground_torque_x	   l_ground_torque_y	   l_ground_torque_z	
          0.50000000	         23.59791901	        439.02556411	        -13.29750547	         -0.73970964	          0.00000000	          0.06446735	          0.00000000	          0.00000000	          0.00000000	          0.00000000	          0.00000000	          0.00000000	          0.00000000	          3.31636815	          0.00000000	          0.00000000	          0.00000000	          0.00000000	
          0.50400000	         26.35316026	        448.95357105	        -15.22814786	         -0.73884822	          0.00000000	          0.06474518	          0.00000000	          0.00000000	          0.00000000	          0.00000000	          0.00000000	          0.00000000	          0.00000000	          3.22293502	          0.00000000	          0.00000000	          0.00000000	          0.00000000	
          0.50800000	         29.32093705	        459.73837559	        -17.01695720	         -0.73797469	          0.00000000	          0.06502044	          0.00000000	          0.00000000	          0.00000000	          0.00000000	          0.00000000	          0.00000000	          0.00000000	          3.14197994	          0.00000000	          0.00000000	          0.00000000	          0.00000000	
          0.51200000	         32.34852481	        471.31947462	        -18.55155886	         -0.73707533	          0.00000000	          0.06527460	          0.00000000	          0.00000000	          0.00000000	          0.00000000	          0.00000000	          0.00000000	          0.00000000	          3.09218009	          0.00000000	          0.00000000	          0.00000000	          0.00000000	
          0.51600000	         35.29331845	        483.62041617	        -19.79311778	         -0.73611561	          0.00000000	          0.06550208	          0.00000000	          0.00000000	          0.00000000	          0.00000000	          0.00000000	          0.00000000	          0.00000000	          3.08401902	          0.00000000	          0.00000000	          0.00000000	          0.00000000	
          0.52000000	         38.05761293	        496.54669714	        -20.78369484	         -0.73504702	          0.00000000	          0.06570234	          0.00000000	          0.00000000	          0.00000000	          0.00000000	          0.00000000	          0.00000000	          0.00000000	          3.11791379	          0.00000000	          0.00000000	          0.00000000	          0.00000000	
          0.52400000	         40.60980812	        509.98249258	        -21.63532953	         -0.73382899	          0.00000000	          0.06588041	          0.00000000	          0.00000000	          0.00000000	          0.00000000	          0.00000000	          0.00000000	          0.00000000	          3.18482628	          0.00000000	          0.00000000	          0.00000000	          0.00000000	
          0.52800000	         42.97722798	        523.80457955	        -22.49936393	         -0.73244490	          0.00000000	          0.06604255	          0.00000000	          0.00000000	          0.00000000	          0.00000000	          0.00000000	          0.00000000	          0.00000000	          3.26905045	          0.00000000	          0.00000000	          0.00000000	          0.00000000	
          0.53200000	         45.20955317	        537.92178971	        -23.51964863	         -0.73090985	          0.00000000	          0.06618766	          0.00000000	          0.00000000	          0.00000000	          0.00000000	          0.00000000	          0.00000000	          0.00000000	          3.35239361	          0.00000000	          0.00000000	          0.00000000	          0.00000000	
          0.53600000	         47.35156546	        552.26630481	        -24.79300268	         -0.72927882	          0.00000000	          0.06630867	          0.00000000	          0.00000000	          0.00000000	          0.00000000	          0.00000000	          0.00000000	          0.00000000	          3.41874651	          0.00000000	          0.00000000	          0.00000000	          0.00000000	
          0.54000000	         49.44287540	        566.68685313	        -26.35856405	         -0.72759965	          0.00000000	          0.06641087	          0.00000000	          0.00000000	          0.00000000	          0.00000000	          0.00000000	          0.00000000	          0.00000000	          3.45808293	          0.00000000	          0.00000000	          0.00000000	          0.00000000	
          0.54400000	         51.50826003	        580.88795507	        -28.20062492	         -0.72583417	          0.00000000	          0.06652122	          0.00000000	          0.00000000	          0.00000000	          0.00000000	          0.00000000	          0.00000000	          0.00000000	          3.46913338	          0.00000000	          0.00000000	          0.00000000	          0.00000000	
          0.54800000	         53.54098919	        594.56829009	        -30.23934834	         -0.72388688	          0.00000000	          0.06666296	          0.00000000	          0.00000000	          0.00000000	          0.00000000	          0.00000000	          0.00000000	          0.00000000	          3.46018274	          0.00000000	          0.00000000	          0.00000000	          0.00000000	
          0.55200000	         55.52826499	        607.63312358	        -32.32140102	         -0.72174260	          0.00000000	          0.06682333	          0.00000000	          0.00000000	          0.00000000	          0.00000000	          0.00000000	          0.00000000	          0.00000000	          3.44766677	          0.00000000	          0.00000000	          0.00000000	          0.00000000	
          0.55600000	         57.49430548	        620.23438183	        -34.24798664	         -0.71952311	          0.00000000	          0.06695730	          0.00000000	          0.00000000	          0.00000000	          0.00000000	          0.00000000	          0.00000000	          0.00000000	          3.45265546	          0.00000000	          0.00000000	          0.00000000	          0.00000000	
          0.56000000	         59.49158806	        632.60380794	        -35.83723346	         -0.71738539	          0.00000000	          0.06702372	          0.00000000	          0.00000000	          0.00000000	          0.00000000	          0.00000000	          0.00000000	          0.00000000	          3.49592054	          0.00000000	          0.00000000	          0.00000000	          0.00000000	
          0.56400000	         61.56266808	        644.85853198	        -36.96844437	         -0.71537840	          0.00000000	          0.06701503	          0.00000000	          0.00000000	          0.00000000	          0.00000000	          0.00000000	          0.00000000	          0.00000000	          3.59278933	          0.00000000	          0.00000000	          0.00000000	          0.00000000	
          0.56800000	         63.73969995	        656.96469793	        -37.59034637	         -0.71342174	          0.00000000	          0.06695296	          0.00000000	          0.00000000	          0.00000000	          0.00000000	          0.00000000	          0.00000000	          0.00000000	          3.74902931	          0.00000000	          0.00000000	          0.00000000	          0.00000000	
          0.57200000	         66.07344017	        668.90071194	        -37.72160077	         -0.71143842	          0.00000000	          0.06685710	          0.00000000	          0.00000000	          0.00000000	          0.00000000	          0.00000000	          0.00000000	          0.00000000	          3.95858239	          0.00000000	          0.00000000	          0.00000000	          0.00000000	
          0.57600000	         68.64029705	        680.84075568	        -37.45148501	         -0.70947235	          0.00000000	          0.06671916	          0.00000000	          0.00000000	          0.00000000	          0.00000000	          0.00000000	          0.00000000	          0.00000000	          4.20343586	          0.00000000	          0.00000000	          0.00000000	          0.00000000	
          0.58000000	         71.52168738	        693.08932393	        -36.92916974	         -0.70766292	          0.00000000	          0.06650949	          0.00000000	          0.00000000	          0.00000000	          0.00000000	          0.00000000	          0.00000000	          0.00000000	          4.45562898	          0.00000000	          0.00000000	          0.00000000	          0.00000000	
          0.58400000	         74.79633713	        705.75849989	        -36.34072885	         -0.70609331	          0.00000000	          0.06622118	          0.00000000	          0.00000000	          0.00000000	          0.00000000	          0.00000000	          0.00000000	          0.00000000	          4.68135949	          0.00000000	          0.00000000	          0.00000000	          0.00000000	
          0.58800000	         78.55445860	        718.55414081	        -35.88195871	         -0.70468563	          0.00000000	          0.06590115	          0.00000000	          0.00000000	          0.00000000	          0.00000000	          0.00000000	          0.00000000	          0.00000000	          4.84699451	          0.00000000	          0.00000000	          0.00000000	          0.00000000	
          0.59200000	         82.89041660	        731.00996429	        -35.72816573	         -0.70325992	          0.00000000	          0.06561917	          0.00000000	          0.00000000	          0.00000000	          0.00000000	          0.00000000	          0.00000000	          0.00000000	          4.92614099	          0.00000000	          0.00000000	          0.00000000	          0.00000000	
          0.59600000	         87.87306811	        742.97352574	        -35.98652064	         -0.70175722	          0.00000000	          0.06539011	          0.00000000	          0.00000000	          0.00000000	          0.00000000	          0.00000000	          0.00000000	          0.00000000	          4.90604164	          0.00000000	          0.00000000	          0.00000000	          0.00000000	
          0.60000000	         93.55029697	        754.72564208	        -36.63029883	         -0.70037513	          0.00000000	          0.06514446	          0.00000000	          0.00000000	          0.00000000	          0.00000000	          0.00000000	          0.00000000	          0.00000000	          4.79126734	          0.00000000	          0.00000000	          0.00000000	          0.00000000	
          0.60400000	         99.95558228	        766.50088850	        -37.46198119	         -0.69939706	          0.00000000	          0.06479945	          0.00000000	          0.00000000	          0.00000000	          0.00000000	          0.00000000	          0.00000000	          0.00000000	          4.60352106	          0.00000000	          0.00000000	          0.00000000	          0.00000000	
          0.60800000	        107.04464457	        777.99482202	        -38.15224449	         -0.69877033	          0.00000000	          0.06436310	          0.00000000	          0.00000000	          0.00000000	          0.00000000	          0.00000000	          0.00000000	          0.00000000	          4.37782308	          0.00000000	          0.00000000	          0.00000000	          0.00000000	
          0.61200000	        114.66044073	        788.52033587	        -38.33664103	         -0.69818219	          0.00000000	          0.06388332	          0.00000000	          0.00000000	          0.00000000	          0.00000000	          0.00000000	          0.00000000	          0.00000000	          4.15625714	          0.00000000	          0.00000000	          0.00000000	          0.00000000	
          0.61600000	        122.64710225	        797.62141001	        -37.71209933	         -0.69745311	          0.00000000	          0.06337059	          0.00000000	          0.00000000	          0.00000000	          0.00000000	          0.00000000	          0.00000000	          0.00000000	          3.98046412	          0.00000000	          0.00000000	          0.00000000	          0.00000000	
